<svg xmlns="http://www.w3.org/2000/svg" version="1.1" xmlns:xlink="http://www.w3.org/1999/xlink" xmlns:svgjs="http://svgjs.dev/svgjs" width="1440" height="771" preserveAspectRatio="none" viewBox="0 0 1440 771"><g mask="url(&quot;#SvgjsMask1821&quot;)" fill="none"><path d="M122.68 97.45L191.97 137.45L191.97 217.45L122.68 257.45L53.4 217.45L53.4 137.45zM53.4 697.45L122.68 737.45L122.68 817.45L53.4 857.45L-15.88 817.45L-15.88 737.45zM261.25 97.45L330.54 137.45L330.54 217.45L261.25 257.45L191.97 217.45L191.97 137.45zM191.97 217.45L261.25 257.45L261.25 337.45L191.97 377.45L122.68 337.45L122.68 257.45zM261.25 337.45L330.54 377.45L330.54 457.45L261.25 497.45L191.97 457.45L191.97 377.45zM191.97 457.45L261.25 497.45L261.25 577.45L191.97 617.45L122.68 577.45L122.68 497.45zM261.25 577.45L330.54 617.45L330.54 697.45L261.25 737.45L191.97 697.45L191.97 617.45zM330.54 -22.55L399.82 17.45L399.82 97.45L330.54 137.45L261.25 97.45L261.25 17.45zM330.54 697.45L399.82 737.45L399.82 817.45L330.54 857.45L261.25 817.45L261.25 737.45zM469.1 -22.55L538.39 17.45L538.39 97.45L469.1 137.45L399.82 97.45L399.82 17.45zM538.39 97.45L607.67 137.45L607.67 217.45L538.39 257.45L469.1 217.45L469.1 137.45zM469.1 217.45L538.39 257.45L538.39 337.45L469.1 377.45L399.82 337.45L399.82 257.45zM538.39 577.45L607.67 617.45L607.67 697.45L538.39 737.45L469.1 697.45L469.1 617.45zM676.96 97.45L746.24 137.45L746.24 217.45L676.96 257.45L607.67 217.45L607.67 137.45zM607.67 217.45L676.96 257.45L676.96 337.45L607.67 377.45L538.39 337.45L538.39 257.45zM676.96 337.45L746.24 377.45L746.24 457.45L676.96 497.45L607.67 457.45L607.67 377.45zM746.24 217.45L815.52 257.45L815.52 337.45L746.24 377.45L676.96 337.45L676.96 257.45zM884.81 -22.55L954.09 17.45L954.09 97.45L884.81 137.45L815.52 97.45L815.52 17.45zM884.81 217.45L954.09 257.45L954.09 337.45L884.81 377.45L815.52 337.45L815.52 257.45zM884.81 457.45L954.09 497.45L954.09 577.45L884.81 617.45L815.52 577.45L815.52 497.45zM954.09 577.45L1023.38 617.45L1023.38 697.45L954.09 737.45L884.81 697.45L884.81 617.45zM884.81 697.45L954.09 737.45L954.09 817.45L884.81 857.45L815.52 817.45L815.52 737.45zM1023.38 457.45L1092.66 497.45L1092.66 577.45L1023.38 617.45L954.09 577.45L954.09 497.45zM1231.23 337.45L1300.51 377.45L1300.51 457.45L1231.23 497.45L1161.94 457.45L1161.94 377.45zM1161.94 457.45L1231.23 497.45L1231.23 577.45L1161.94 617.45L1092.66 577.45L1092.66 497.45zM1231.23 577.45L1300.51 617.45L1300.51 697.45L1231.23 737.45L1161.94 697.45L1161.94 617.45zM1369.8 97.45L1439.08 137.45L1439.08 217.45L1369.8 257.45L1300.51 217.45L1300.51 137.45zM1300.51 457.45L1369.8 497.45L1369.8 577.45L1300.51 617.45L1231.23 577.45L1231.23 497.45zM1369.8 577.45L1439.08 617.45L1439.08 697.45L1369.8 737.45L1300.51 697.45L1300.51 617.45zM1439.08 -22.55L1508.36 17.45L1508.36 97.45L1439.08 137.45L1369.8 97.45L1369.8 17.45zM1508.36 337.45L1577.65 377.45L1577.65 457.45L1508.36 497.45L1439.08 457.45L1439.08 377.45zM1439.08 697.45L1508.36 737.45L1508.36 817.45L1439.08 857.45L1369.8 817.45L1369.8 737.45z" stroke="#03305d" stroke-width="2"></path><path d="M114.68 97.45 a8 8 0 1 0 16 0 a8 8 0 1 0 -16 0zM183.97 137.45 a8 8 0 1 0 16 0 a8 8 0 1 0 -16 0zM183.97 217.45 a8 8 0 1 0 16 0 a8 8 0 1 0 -16 0zM114.68 257.45 a8 8 0 1 0 16 0 a8 8 0 1 0 -16 0zM45.4 217.45 a8 8 0 1 0 16 0 a8 8 0 1 0 -16 0zM45.4 137.45 a8 8 0 1 0 16 0 a8 8 0 1 0 -16 0zM45.4 697.45 a8 8 0 1 0 16 0 a8 8 0 1 0 -16 0zM114.68 737.45 a8 8 0 1 0 16 0 a8 8 0 1 0 -16 0zM114.68 817.45 a8 8 0 1 0 16 0 a8 8 0 1 0 -16 0zM45.4 857.45 a8 8 0 1 0 16 0 a8 8 0 1 0 -16 0zM-23.88 817.45 a8 8 0 1 0 16 0 a8 8 0 1 0 -16 0zM-23.88 737.45 a8 8 0 1 0 16 0 a8 8 0 1 0 -16 0zM253.25 97.45 a8 8 0 1 0 16 0 a8 8 0 1 0 -16 0zM322.54 137.45 a8 8 0 1 0 16 0 a8 8 0 1 0 -16 0zM322.54 217.45 a8 8 0 1 0 16 0 a8 8 0 1 0 -16 0zM253.25 257.45 a8 8 0 1 0 16 0 a8 8 0 1 0 -16 0zM253.25 337.45 a8 8 0 1 0 16 0 a8 8 0 1 0 -16 0zM183.97 377.45 a8 8 0 1 0 16 0 a8 8 0 1 0 -16 0zM114.68 337.45 a8 8 0 1 0 16 0 a8 8 0 1 0 -16 0zM322.54 377.45 a8 8 0 1 0 16 0 a8 8 0 1 0 -16 0zM322.54 457.45 a8 8 0 1 0 16 0 a8 8 0 1 0 -16 0zM253.25 497.45 a8 8 0 1 0 16 0 a8 8 0 1 0 -16 0zM183.97 457.45 a8 8 0 1 0 16 0 a8 8 0 1 0 -16 0zM253.25 577.45 a8 8 0 1 0 16 0 a8 8 0 1 0 -16 0zM183.97 617.45 a8 8 0 1 0 16 0 a8 8 0 1 0 -16 0zM114.68 577.45 a8 8 0 1 0 16 0 a8 8 0 1 0 -16 0zM114.68 497.45 a8 8 0 1 0 16 0 a8 8 0 1 0 -16 0zM322.54 617.45 a8 8 0 1 0 16 0 a8 8 0 1 0 -16 0zM322.54 697.45 a8 8 0 1 0 16 0 a8 8 0 1 0 -16 0zM253.25 737.45 a8 8 0 1 0 16 0 a8 8 0 1 0 -16 0zM183.97 697.45 a8 8 0 1 0 16 0 a8 8 0 1 0 -16 0zM322.54 -22.55 a8 8 0 1 0 16 0 a8 8 0 1 0 -16 0zM391.82 17.45 a8 8 0 1 0 16 0 a8 8 0 1 0 -16 0zM391.82 97.45 a8 8 0 1 0 16 0 a8 8 0 1 0 -16 0zM253.25 17.45 a8 8 0 1 0 16 0 a8 8 0 1 0 -16 0zM391.82 737.45 a8 8 0 1 0 16 0 a8 8 0 1 0 -16 0zM391.82 817.45 a8 8 0 1 0 16 0 a8 8 0 1 0 -16 0zM322.54 857.45 a8 8 0 1 0 16 0 a8 8 0 1 0 -16 0zM253.25 817.45 a8 8 0 1 0 16 0 a8 8 0 1 0 -16 0zM461.1 -22.55 a8 8 0 1 0 16 0 a8 8 0 1 0 -16 0zM530.39 17.45 a8 8 0 1 0 16 0 a8 8 0 1 0 -16 0zM530.39 97.45 a8 8 0 1 0 16 0 a8 8 0 1 0 -16 0zM461.1 137.45 a8 8 0 1 0 16 0 a8 8 0 1 0 -16 0zM599.67 137.45 a8 8 0 1 0 16 0 a8 8 0 1 0 -16 0zM599.67 217.45 a8 8 0 1 0 16 0 a8 8 0 1 0 -16 0zM530.39 257.45 a8 8 0 1 0 16 0 a8 8 0 1 0 -16 0zM461.1 217.45 a8 8 0 1 0 16 0 a8 8 0 1 0 -16 0zM530.39 337.45 a8 8 0 1 0 16 0 a8 8 0 1 0 -16 0zM461.1 377.45 a8 8 0 1 0 16 0 a8 8 0 1 0 -16 0zM391.82 337.45 a8 8 0 1 0 16 0 a8 8 0 1 0 -16 0zM391.82 257.45 a8 8 0 1 0 16 0 a8 8 0 1 0 -16 0zM530.39 577.45 a8 8 0 1 0 16 0 a8 8 0 1 0 -16 0zM599.67 617.45 a8 8 0 1 0 16 0 a8 8 0 1 0 -16 0zM599.67 697.45 a8 8 0 1 0 16 0 a8 8 0 1 0 -16 0zM530.39 737.45 a8 8 0 1 0 16 0 a8 8 0 1 0 -16 0zM461.1 697.45 a8 8 0 1 0 16 0 a8 8 0 1 0 -16 0zM461.1 617.45 a8 8 0 1 0 16 0 a8 8 0 1 0 -16 0zM668.96 97.45 a8 8 0 1 0 16 0 a8 8 0 1 0 -16 0zM738.24 137.45 a8 8 0 1 0 16 0 a8 8 0 1 0 -16 0zM738.24 217.45 a8 8 0 1 0 16 0 a8 8 0 1 0 -16 0zM668.96 257.45 a8 8 0 1 0 16 0 a8 8 0 1 0 -16 0zM668.96 337.45 a8 8 0 1 0 16 0 a8 8 0 1 0 -16 0zM599.67 377.45 a8 8 0 1 0 16 0 a8 8 0 1 0 -16 0zM738.24 377.45 a8 8 0 1 0 16 0 a8 8 0 1 0 -16 0zM738.24 457.45 a8 8 0 1 0 16 0 a8 8 0 1 0 -16 0zM668.96 497.45 a8 8 0 1 0 16 0 a8 8 0 1 0 -16 0zM599.67 457.45 a8 8 0 1 0 16 0 a8 8 0 1 0 -16 0zM807.52 257.45 a8 8 0 1 0 16 0 a8 8 0 1 0 -16 0zM807.52 337.45 a8 8 0 1 0 16 0 a8 8 0 1 0 -16 0zM876.81 -22.55 a8 8 0 1 0 16 0 a8 8 0 1 0 -16 0zM946.09 17.45 a8 8 0 1 0 16 0 a8 8 0 1 0 -16 0zM946.09 97.45 a8 8 0 1 0 16 0 a8 8 0 1 0 -16 0zM876.81 137.45 a8 8 0 1 0 16 0 a8 8 0 1 0 -16 0zM807.52 97.45 a8 8 0 1 0 16 0 a8 8 0 1 0 -16 0zM807.52 17.45 a8 8 0 1 0 16 0 a8 8 0 1 0 -16 0zM876.81 217.45 a8 8 0 1 0 16 0 a8 8 0 1 0 -16 0zM946.09 257.45 a8 8 0 1 0 16 0 a8 8 0 1 0 -16 0zM946.09 337.45 a8 8 0 1 0 16 0 a8 8 0 1 0 -16 0zM876.81 377.45 a8 8 0 1 0 16 0 a8 8 0 1 0 -16 0zM876.81 457.45 a8 8 0 1 0 16 0 a8 8 0 1 0 -16 0zM946.09 497.45 a8 8 0 1 0 16 0 a8 8 0 1 0 -16 0zM946.09 577.45 a8 8 0 1 0 16 0 a8 8 0 1 0 -16 0zM876.81 617.45 a8 8 0 1 0 16 0 a8 8 0 1 0 -16 0zM807.52 577.45 a8 8 0 1 0 16 0 a8 8 0 1 0 -16 0zM807.52 497.45 a8 8 0 1 0 16 0 a8 8 0 1 0 -16 0zM1015.38 617.45 a8 8 0 1 0 16 0 a8 8 0 1 0 -16 0zM1015.38 697.45 a8 8 0 1 0 16 0 a8 8 0 1 0 -16 0zM946.09 737.45 a8 8 0 1 0 16 0 a8 8 0 1 0 -16 0zM876.81 697.45 a8 8 0 1 0 16 0 a8 8 0 1 0 -16 0zM946.09 817.45 a8 8 0 1 0 16 0 a8 8 0 1 0 -16 0zM876.81 857.45 a8 8 0 1 0 16 0 a8 8 0 1 0 -16 0zM807.52 817.45 a8 8 0 1 0 16 0 a8 8 0 1 0 -16 0zM807.52 737.45 a8 8 0 1 0 16 0 a8 8 0 1 0 -16 0zM1015.38 457.45 a8 8 0 1 0 16 0 a8 8 0 1 0 -16 0zM1084.66 497.45 a8 8 0 1 0 16 0 a8 8 0 1 0 -16 0zM1084.66 577.45 a8 8 0 1 0 16 0 a8 8 0 1 0 -16 0zM1223.23 337.45 a8 8 0 1 0 16 0 a8 8 0 1 0 -16 0zM1292.51 377.45 a8 8 0 1 0 16 0 a8 8 0 1 0 -16 0zM1292.51 457.45 a8 8 0 1 0 16 0 a8 8 0 1 0 -16 0zM1223.23 497.45 a8 8 0 1 0 16 0 a8 8 0 1 0 -16 0zM1153.94 457.45 a8 8 0 1 0 16 0 a8 8 0 1 0 -16 0zM1153.94 377.45 a8 8 0 1 0 16 0 a8 8 0 1 0 -16 0zM1223.23 577.45 a8 8 0 1 0 16 0 a8 8 0 1 0 -16 0zM1153.94 617.45 a8 8 0 1 0 16 0 a8 8 0 1 0 -16 0zM1292.51 617.45 a8 8 0 1 0 16 0 a8 8 0 1 0 -16 0zM1292.51 697.45 a8 8 0 1 0 16 0 a8 8 0 1 0 -16 0zM1223.23 737.45 a8 8 0 1 0 16 0 a8 8 0 1 0 -16 0zM1153.94 697.45 a8 8 0 1 0 16 0 a8 8 0 1 0 -16 0zM1361.8 97.45 a8 8 0 1 0 16 0 a8 8 0 1 0 -16 0zM1431.08 137.45 a8 8 0 1 0 16 0 a8 8 0 1 0 -16 0zM1431.08 217.45 a8 8 0 1 0 16 0 a8 8 0 1 0 -16 0zM1361.8 257.45 a8 8 0 1 0 16 0 a8 8 0 1 0 -16 0zM1292.51 217.45 a8 8 0 1 0 16 0 a8 8 0 1 0 -16 0zM1292.51 137.45 a8 8 0 1 0 16 0 a8 8 0 1 0 -16 0zM1361.8 497.45 a8 8 0 1 0 16 0 a8 8 0 1 0 -16 0zM1361.8 577.45 a8 8 0 1 0 16 0 a8 8 0 1 0 -16 0zM1431.08 617.45 a8 8 0 1 0 16 0 a8 8 0 1 0 -16 0zM1431.08 697.45 a8 8 0 1 0 16 0 a8 8 0 1 0 -16 0zM1361.8 737.45 a8 8 0 1 0 16 0 a8 8 0 1 0 -16 0zM1431.08 -22.55 a8 8 0 1 0 16 0 a8 8 0 1 0 -16 0zM1500.36 17.45 a8 8 0 1 0 16 0 a8 8 0 1 0 -16 0zM1500.36 97.45 a8 8 0 1 0 16 0 a8 8 0 1 0 -16 0zM1361.8 17.45 a8 8 0 1 0 16 0 a8 8 0 1 0 -16 0zM1500.36 337.45 a8 8 0 1 0 16 0 a8 8 0 1 0 -16 0zM1569.65 377.45 a8 8 0 1 0 16 0 a8 8 0 1 0 -16 0zM1569.65 457.45 a8 8 0 1 0 16 0 a8 8 0 1 0 -16 0zM1500.36 497.45 a8 8 0 1 0 16 0 a8 8 0 1 0 -16 0zM1431.08 457.45 a8 8 0 1 0 16 0 a8 8 0 1 0 -16 0zM1431.08 377.45 a8 8 0 1 0 16 0 a8 8 0 1 0 -16 0zM1500.36 737.45 a8 8 0 1 0 16 0 a8 8 0 1 0 -16 0zM1500.36 817.45 a8 8 0 1 0 16 0 a8 8 0 1 0 -16 0zM1431.08 857.45 a8 8 0 1 0 16 0 a8 8 0 1 0 -16 0zM1361.8 817.45 a8 8 0 1 0 16 0 a8 8 0 1 0 -16 0z" fill="#03305d"></path><path d="M13.85 -50.37L58.88 -24.37L58.88 27.63L13.85 53.63L-31.18 27.63L-31.18 -24.37zM58.88 339.63L103.92 365.63L103.92 417.63L58.88 443.63L13.85 417.63L13.85 365.63zM13.85 417.63L58.88 443.63L58.88 495.63L13.85 521.63L-31.18 495.63L-31.18 443.63zM13.85 573.63L58.88 599.63L58.88 651.63L13.85 677.63L-31.18 651.63L-31.18 599.63zM13.85 729.63L58.88 755.63L58.88 807.63L13.85 833.63L-31.18 807.63L-31.18 755.63zM103.92 105.63L148.95 131.63L148.95 183.63L103.92 209.63L58.88 183.63L58.88 131.63zM103.92 417.63L148.95 443.63L148.95 495.63L103.92 521.63L58.88 495.63L58.88 443.63zM103.92 573.63L148.95 599.63L148.95 651.63L103.92 677.63L58.88 651.63L58.88 599.63zM239.02 183.63L284.06 209.63L284.06 261.63L239.02 287.63L193.99 261.63L193.99 209.63zM193.99 261.63L239.02 287.63L239.02 339.63L193.99 365.63L148.95 339.63L148.95 287.63zM193.99 573.63L239.02 599.63L239.02 651.63L193.99 677.63L148.95 651.63L148.95 599.63zM329.09 27.63L374.13 53.63L374.13 105.63L329.09 131.63L284.06 105.63L284.06 53.63zM284.06 261.63L329.09 287.63L329.09 339.63L284.06 365.63L239.02 339.63L239.02 287.63zM329.09 339.63L374.13 365.63L374.13 417.63L329.09 443.63L284.06 417.63L284.06 365.63zM329.09 651.63L374.13 677.63L374.13 729.63L329.09 755.63L284.06 729.63L284.06 677.63zM284.06 729.63L329.09 755.63L329.09 807.63L284.06 833.63L239.02 807.63L239.02 755.63zM374.13 -50.37L419.16 -24.37L419.16 27.63L374.13 53.63L329.09 27.63L329.09 -24.37zM419.16 27.63L464.2 53.63L464.2 105.63L419.16 131.63L374.13 105.63L374.13 53.63zM374.13 417.63L419.16 443.63L419.16 495.63L374.13 521.63L329.09 495.63L329.09 443.63zM374.13 573.63L419.16 599.63L419.16 651.63L374.13 677.63L329.09 651.63L329.09 599.63zM419.16 651.63L464.2 677.63L464.2 729.63L419.16 755.63L374.13 729.63L374.13 677.63zM464.2 105.63L509.23 131.63L509.23 183.63L464.2 209.63L419.16 183.63L419.16 131.63zM464.2 261.63L509.23 287.63L509.23 339.63L464.2 365.63L419.16 339.63L419.16 287.63zM464.2 729.63L509.23 755.63L509.23 807.63L464.2 833.63L419.16 807.63L419.16 755.63zM554.27 -50.37L599.3 -24.37L599.3 27.63L554.27 53.63L509.23 27.63L509.23 -24.37zM599.3 339.63L644.33 365.63L644.33 417.63L599.3 443.63L554.27 417.63L554.27 365.63zM554.27 417.63L599.3 443.63L599.3 495.63L554.27 521.63L509.23 495.63L509.23 443.63zM599.3 495.63L644.33 521.63L644.33 573.63L599.3 599.63L554.27 573.63L554.27 521.63zM554.27 573.63L599.3 599.63L599.3 651.63L554.27 677.63L509.23 651.63L509.23 599.63zM599.3 651.63L644.33 677.63L644.33 729.63L599.3 755.63L554.27 729.63L554.27 677.63zM689.37 183.63L734.4 209.63L734.4 261.63L689.37 287.63L644.33 261.63L644.33 209.63zM644.33 417.63L689.37 443.63L689.37 495.63L644.33 521.63L599.3 495.63L599.3 443.63zM689.37 651.63L734.4 677.63L734.4 729.63L689.37 755.63L644.33 729.63L644.33 677.63zM734.4 -50.37L779.44 -24.37L779.44 27.63L734.4 53.63L689.37 27.63L689.37 -24.37zM734.4 417.63L779.44 443.63L779.44 495.63L734.4 521.63L689.37 495.63L689.37 443.63zM779.44 495.63L824.47 521.63L824.47 573.63L779.44 599.63L734.4 573.63L734.4 521.63zM734.4 573.63L779.44 599.63L779.44 651.63L734.4 677.63L689.37 651.63L689.37 599.63zM779.44 651.63L824.47 677.63L824.47 729.63L779.44 755.63L734.4 729.63L734.4 677.63zM734.4 729.63L779.44 755.63L779.44 807.63L734.4 833.63L689.37 807.63L689.37 755.63zM869.51 339.63L914.54 365.63L914.54 417.63L869.51 443.63L824.47 417.63L824.47 365.63zM869.51 495.63L914.54 521.63L914.54 573.63L869.51 599.63L824.47 573.63L824.47 521.63zM824.47 573.63L869.51 599.63L869.51 651.63L824.47 677.63L779.44 651.63L779.44 599.63zM959.58 27.63L1004.61 53.63L1004.61 105.63L959.58 131.63L914.54 105.63L914.54 53.63zM959.58 183.63L1004.61 209.63L1004.61 261.63L959.58 287.63L914.54 261.63L914.54 209.63zM914.54 261.63L959.58 287.63L959.58 339.63L914.54 365.63L869.51 339.63L869.51 287.63zM959.58 495.63L1004.61 521.63L1004.61 573.63L959.58 599.63L914.54 573.63L914.54 521.63zM914.54 573.63L959.58 599.63L959.58 651.63L914.54 677.63L869.51 651.63L869.51 599.63zM1004.61 -50.37L1049.65 -24.37L1049.65 27.63L1004.61 53.63L959.58 27.63L959.58 -24.37zM1049.65 27.63L1094.68 53.63L1094.68 105.63L1049.65 131.63L1004.61 105.63L1004.61 53.63zM1049.65 183.63L1094.68 209.63L1094.68 261.63L1049.65 287.63L1004.61 261.63L1004.61 209.63zM1049.65 339.63L1094.68 365.63L1094.68 417.63L1049.65 443.63L1004.61 417.63L1004.61 365.63zM1004.61 417.63L1049.65 443.63L1049.65 495.63L1004.61 521.63L959.58 495.63L959.58 443.63zM1049.65 495.63L1094.68 521.63L1094.68 573.63L1049.65 599.63L1004.61 573.63L1004.61 521.63zM1004.61 573.63L1049.65 599.63L1049.65 651.63L1004.61 677.63L959.58 651.63L959.58 599.63zM1049.65 651.63L1094.68 677.63L1094.68 729.63L1049.65 755.63L1004.61 729.63L1004.61 677.63zM1094.68 -50.37L1139.71 -24.37L1139.71 27.63L1094.68 53.63L1049.65 27.63L1049.65 -24.37zM1094.68 729.63L1139.71 755.63L1139.71 807.63L1094.68 833.63L1049.65 807.63L1049.65 755.63zM1184.75 -50.37L1229.78 -24.37L1229.78 27.63L1184.75 53.63L1139.71 27.63L1139.71 -24.37zM1229.78 183.63L1274.82 209.63L1274.82 261.63L1229.78 287.63L1184.75 261.63L1184.75 209.63zM1184.75 261.63L1229.78 287.63L1229.78 339.63L1184.75 365.63L1139.71 339.63L1139.71 287.63zM1184.75 729.63L1229.78 755.63L1229.78 807.63L1184.75 833.63L1139.71 807.63L1139.71 755.63zM1274.82 105.63L1319.85 131.63L1319.85 183.63L1274.82 209.63L1229.78 183.63L1229.78 131.63zM1319.85 183.63L1364.89 209.63L1364.89 261.63L1319.85 287.63L1274.82 261.63L1274.82 209.63zM1319.85 495.63L1364.89 521.63L1364.89 573.63L1319.85 599.63L1274.82 573.63L1274.82 521.63zM1319.85 651.63L1364.89 677.63L1364.89 729.63L1319.85 755.63L1274.82 729.63L1274.82 677.63zM1364.89 261.63L1409.92 287.63L1409.92 339.63L1364.89 365.63L1319.85 339.63L1319.85 287.63zM1409.92 651.63L1454.96 677.63L1454.96 729.63L1409.92 755.63L1364.89 729.63L1364.89 677.63z" stroke="url(&quot;#SvgjsLinearGradient1822&quot;)" stroke-width="2"></path></g><defs><mask id="SvgjsMask1821"><rect width="1440" height="771" fill="#ffffff"></rect></mask><linearGradient x1="167.184" y1="-167.22990000000001" x2="1272.816" y2="938.2298999999999" gradientUnits="userSpaceOnUse" id="SvgjsLinearGradient1822"><stop stop-color="#0e2a47" offset="0"></stop><stop stop-color="rgba(245, 249, 255, 1)" offset="1"></stop></linearGradient></defs></svg>